HIERARCHY
ROOT Hips
{
  OFFSET -33.9132 29.2015 117.021
  CHANNELS 6 Xposition Yposition Zposition Zrotation Xrotation Yrotation
  JOINT LeftUpLeg
  {
    OFFSET 8.64259 1.95398 -2.38835
    CHANNELS 3 Zrotation Xrotation Yrotation
    JOINT LeftLeg
    {
      OFFSET 43.7702 0 0
      CHANNELS 3 Zrotation Xrotation Yrotation
      JOINT LeftFoot
      {
        OFFSET 40.6238 0 0
        CHANNELS 3 Zrotation Xrotation Yrotation
        JOINT LeftToeBase
        {
          OFFSET 12.7242 0 0
          CHANNELS 3 Zrotation Xrotation Yrotation
          End Site
          {
            OFFSET 0 0 0
          }
        }
      }
    }
  }
  JOINT RightUpLeg
  {
    OFFSET -8.2249 1.95398 -2.59336
    CHANNELS 3 Zrotation Xrotation Yrotation
    JOINT RightLeg
    {
      OFFSET 43.5653 0 0
      CHANNELS 3 Zrotation Xrotation Yrotation
      JOINT RightFoot
      {
        OFFSET 40.6238 0 0
        CHANNELS 3 Zrotation Xrotation Yrotation
        JOINT RightToeBase
        {
          OFFSET 12.7242 0 0
          CHANNELS 3 Zrotation Xrotation Yrotation
          End Site
          {
            OFFSET 0 0 0
          }
        }
      }
    }
  }
  JOINT Spine
  {
    OFFSET 0.165834 0.87714 6.61349
    CHANNELS 3 Zrotation Xrotation Yrotation
    JOINT Spine1
    {
      OFFSET 7.38963 1.71661e-005 0
      CHANNELS 3 Zrotation Xrotation Yrotation
      JOINT Spine2
      {
        OFFSET 11.9445 1.14441e-005 0
        CHANNELS 3 Zrotation Xrotation Yrotation
        JOINT Spine3
        {
          OFFSET 14.7254 4.19617e-005 0
          CHANNELS 3 Zrotation Xrotation Yrotation
          JOINT Spine4
          {
            OFFSET 10.9679 0 0
            CHANNELS 3 Zrotation Xrotation Yrotation
            JOINT RightShoulder
            {
              OFFSET 2.46616 -1.6653 3.69651
              CHANNELS 3 Zrotation Xrotation Yrotation
              JOINT RightArm
              {
                OFFSET 13.0012 0 0
                CHANNELS 3 Zrotation Xrotation Yrotation
                JOINT RightForeArm
                {
                  OFFSET 28.7848 1.62311e-005 0
                  CHANNELS 3 Zrotation Xrotation Yrotation
                  JOINT RightHand
                  {
                    OFFSET 26.5688 1.62095e-005 0
                    CHANNELS 3 Zrotation Xrotation Yrotation
                    End Site
                    {
                      OFFSET 0 0 0
                    }
                  }
                }
              }
            }
            JOINT LeftShoulder
            {
              OFFSET 2.38034 -1.29275 -3.7523
              CHANNELS 3 Zrotation Xrotation Yrotation
              JOINT LeftArm
              {
                OFFSET 16.3182 6.07031e-005 0
                CHANNELS 3 Zrotation Xrotation Yrotation
                JOINT LeftForeArm
                {
                  OFFSET 27.0901 0 0
                  CHANNELS 3 Zrotation Xrotation Yrotation
                  JOINT LeftHand
                  {
                    OFFSET 24.5451 1.51738e-005 0
                    CHANNELS 3 Zrotation Xrotation Yrotation
                    End Site
                    {
                      OFFSET 0 0 0
                    }
                  }
                }
              }
            }
            JOINT Neck
            {
              OFFSET 5.0226 -0.0266342 0
              CHANNELS 3 Zrotation Xrotation Yrotation
              JOINT Head
              {
                OFFSET 6.69364 2.86102e-005 0
                CHANNELS 3 Zrotation Xrotation Yrotation
                End Site
                {
                  OFFSET 0 0 0
                }
              }
            }
          }
        }
      }
    }
  }
}
MOTION
Frames:	12
Frame Time:	0.0416667
-148.99 100.156 -142.58 -97.9071 40.0457 -83.9316 -171.185 1.40232 97.187 -16.2369 17.6048 0.163468 66.0446 5.37723 -0.27743 28.085 -1.46798 2.6812 173.257 0.21087 88.4382 -19.3118 -10.5165 -0.813229 68.1327 -4.52236 -1.20122 23.4961 0.288793 7.25224 0.32664 7.93269 -90.3505 11.0096 0.487863 -0.744053 -0.661473 0.454659 -0.764817 -23.1963 0.688927 -0.563037 -3.18363 0.688941 -0.563039 92.1876 -27.5891 -103.197 45.7825 4.20584 -13.496 -5.05205 -38.1792 -5.31101 -26.3293 4.02044 -22.6955 -88.9771 -50.5344 80.3636 -22.3631 -11.4401 1.98403 -10.8186 27.1042 -0.016732 5.208 -0.546725 -15.3749 8.43065 -1.26219 -0.649252 -0.0844608 -1.03809 2.44159 
-150.203 100.239 -142.081 -98.4882 40.3183 -83.837 -171.295 -0.0218413 96.3185 -15.5392 16.8241 0.0244184 66.593 5.69957 -0.41635 28.0657 -1.58615 2.93592 172.572 -0.81252 87.2219 -18.5527 -11.6244 -0.965171 67.7673 -4.46404 -1.20273 24.3109 0.00358234 7.13774 0.321588 7.95782 -90.2768 10.9593 0.512154 -0.599254 -0.71169 0.485274 -0.621223 -23.247 0.668555 -0.417634 -3.23439 0.668555 -0.417636 91.6736 -27.8258 -104.179 46.7221 4.61149 -10.4925 -4.89102 -35.4672 -5.22751 -20.0817 2.76015 -21.3125 -88.8533 -50.2798 80.4987 -21.8425 -9.99067 -2.76151 -11.2212 28.252 -0.0194139 10.9197 -1.52016 -17.1954 7.96968 -1.40265 -0.549552 -0.518951 -1.21667 2.05414 
-151.069 100.25 -141.738 -98.7634 40.5989 -83.6969 -171.337 -0.586026 95.8645 -15.6697 16.2721 -0.0840212 67.1428 5.95434 -0.470621 26.808 -1.71023 1.82152 172.387 -1.48969 86.6732 -17.898 -12.0089 -1.25748 67.5241 -4.45828 -1.10987 24.5405 -0.0610654 7.0487 0.310522 7.98547 -90.2541 10.9039 0.500639 -0.552641 -0.767069 0.475818 -0.574142 -23.3025 0.643591 -0.376628 -3.28985 0.64357 -0.376629 91.0628 -28.4141 -105.219 45.8928 5.86744 -7.45742 -5.34864 -42.713 -5.47915 -14.7939 1.92144 -20.5933 -88.8042 -50.5059 80.6156 -20.7797 -7.82077 -7.62631 -12.0256 26.6972 -0.0297364 12.4579 -2.2179 -20.2205 8.13142 -1.28615 0.0115376 -1.04126 -1.23485 1.68617 
-151.717 100.249 -141.47 -98.8561 40.7751 -83.6654 -171.434 -0.908001 95.4489 -15.8034 16.0584 -0.147444 67.4727 6.18203 -0.192845 26.7041 -1.75075 1.8021 172.318 -1.77831 86.3025 -17.6442 -12.1556 -1.5096 67.3395 -4.41542 -1.06441 24.8853 -0.160102 6.9205 0.292227 7.99478 -90.1997 10.8853 0.489489 -0.443183 -0.785697 0.469516 -0.464299 -23.3213 0.600061 -0.27558 -3.30867 0.600054 -0.275576 90.8145 -28.6706 -105.628 46.5687 6.27004 -4.96216 -5.50043 -44.821 -5.57269 -11.4575 1.28917 -18.9078 -88.6275 -49.9357 80.7702 -21.007 -8.0864 -11.8334 -11.669 25.5035 0.115997 14.2777 -2.99657 -22.9213 7.96226 -1.19768 0.097716 -0.728627 -1.17136 1.15105 
-152.25 100.243 -141.196 -98.9973 41.0873 -83.3559 -171.423 -1.05601 95.3047 -16.1493 15.7719 -0.198931 67.8827 6.38551 0.0117881 26.5704 -1.81012 1.79046 172.127 -2.13648 86.053 -17.1425 -12.6829 -1.51969 67.0618 -4.46012 -0.981855 25.2234 -0.255757 6.78653 0.248623 7.96508 -90.1865 10.9443 0.408776 -0.409758 -0.726651 0.390325 -0.427353 -23.2621 0.513023 -0.267956 -3.24941 0.513003 -0.26797 91.0811 -28.9804 -104.974 47.0798 6.59548 -3.04787 -5.51422 -45.0036 -5.58131 -10.6744 1.20268 -19.0057 -88.5667 -49.9306 80.8604 -20.7582 -7.90827 -13.8497 -10.4148 25.4848 -2.0483 17.0177 -3.89908 -24.7721 7.16721 -0.70433 0.149474 -0.154718 -0.689773 1.28909 
-152.846 100.216 -141.046 -99.0147 41.6973 -83.4882 -171.631 -1.40504 94.7163 -16.2497 14.6784 -0.219626 68.2862 6.57117 -0.125841 26.1424 -1.98829 1.72688 172.059 -2.02933 85.5836 -17.3962 -12.9763 -1.8125 67.1612 -4.56797 -0.649374 25.5386 -0.359979 6.71527 0.192099 7.96457 -90.168 10.9452 0.304678 -0.363178 -0.725779 0.288432 -0.376244 -23.261 0.39974 -0.254818 -3.24834 0.399765 -0.254822 91.0103 -29.4042 -104.964 47.0941 6.81251 -2.25319 -5.48417 -44.6017 -5.56219 -12.1995 1.38042 -18.8796 -88.6275 -49.6042 80.7062 -21.3247 -7.72272 -15.1502 -9.05401 25.4752 -4.49823 17.1785 -4.32047 -26.8227 7.59907 -0.456706 0.555011 -1.04906 -0.543186 1.16688 
-153.293 100.191 -141.009 -99.1041 42.4179 -83.3048 -171.499 -1.64463 94.6303 -16.4175 13.9959 -0.368093 68.6707 6.81969 -0.135133 25.9726 -1.99028 1.55119 171.976 -2.03662 85.3738 -17.418 -13.864 -1.88852 67.033 -4.5561 -0.845918 25.9509 -0.517941 6.70109 0.124626 7.9452 -90.1351 10.9838 0.185576 -0.286571 -0.687192 0.17279 -0.294471 -23.2223 0.263109 -0.217552 -3.20965 0.263124 -0.217554 91.1046 -29.2648 -104.825 47.9594 6.56154 -1.94824 -5.34187 -42.6173 -5.47486 -14.5598 1.81379 -20.0698 -88.5312 -49.2755 80.7879 -21.3723 -7.90963 -15.2892 -7.85951 27.031 -6.04207 17.3238 -4.65812 -28.3511 7.58913 -0.0682697 0.376126 -1.25426 -0.123535 1.48909 
-153.659 100.167 -140.982 -99.3653 43.4071 -83.1415 -171.627 -2.12636 94.2272 -16.4161 12.4648 -0.315945 69.0311 7.04671 -0.455264 25.7865 -2.0014 1.37949 171.821 -1.98921 84.9802 -17.5676 -15.0477 -2.02152 67.122 -4.6154 -0.762811 25.8985 -0.469834 6.59787 0.122066 7.94479 -90.1727 10.9844 0.163051 -0.359034 -0.686564 0.147103 -0.365872 -23.2215 0.263418 -0.293432 -3.20888 0.263413 -0.293437 91.4362 -28.3222 -104.489 48.7021 6.14526 -2.37738 -5.29656 -41.9601 -5.448 -15.5258 1.96742 -20.2488 -88.9572 -50.8514 80.4552 -19.6407 -7.18724 -15.0349 -8.18108 28.3547 -5.77397 17.047 -4.69945 -28.9006 7.48342 0.593075 1.71616 -1.09757 0.244565 0.931794 
-153.91 100.159 -141.014 -99.6342 44.6364 -82.6191 -171.444 -2.46221 94.3255 -16.4182 11.4365 -0.398639 69.3113 7.21329 -0.35315 25.8426 -1.98191 1.39592 171.986 -2.05938 85.0764 -17.417 -16.0281 -2.21423 66.8764 -4.54273 -0.727942 26.2093 -0.608743 6.66176 0.198603 7.95712 -90.1898 10.96 0.307586 -0.406861 -0.710969 0.289373 -0.420004 -23.2461 0.41562 -0.295618 -3.23347 0.415628 -0.295614 91.5094 -28.0346 -104.443 49.2972 5.65624 -3.20988 -5.31165 -42.1794 -5.45691 -17.724 2.16401 -19.5867 -89.0319 -50.6009 80.295 -20.1698 -6.95303 -14.2291 -8.70754 30.7792 -4.35678 16.7793 -4.43507 -27.8048 7.75211 0.937579 1.96854 -1.55358 0.521475 0.877722 
-154.119 100.119 -141.066 -99.6208 45.5447 -82.6077 -171.48 -2.70147 94.0864 -16.2875 10.5758 -0.450654 69.4831 7.38986 -0.159799 26.1627 -1.986 1.74315 172.03 -1.93681 84.9408 -17.3908 -17.0154 -2.38766 66.9468 -4.63642 -0.814076 26.2862 -0.628587 6.62276 0.237287 7.93834 -90.164 10.9978 0.396482 -0.364177 -0.673171 0.380065 -0.381288 -23.2086 0.48758 -0.228193 -3.19598 0.487597 -0.228182 91.4161 -28.3607 -104.516 49.1899 5.40072 -4.19133 -5.2368 -41.0699 -5.41276 -18.2913 2.45281 -20.9578 -89.1931 -50.5699 80.0493 -20.3899 -7.16525 -12.7501 -10.4548 30.8267 -1.52843 15.7895 -3.92309 -26.3068 7.31508 1.10021 2.10094 -1.12401 0.662722 0.727559 
-154.404 100.123 -141.154 -99.9232 46.3592 -82.4124 -171.56 -3.2481 93.7941 -16.0498 9.49385 -0.423159 69.4244 7.37735 -0.181292 26.4688 -1.92672 1.94049 171.929 -1.96063 84.6586 -17.5537 -17.7657 -2.52156 67.0476 -4.68159 -0.600688 26.2024 -0.557371 6.47702 0.25239 7.95331 -90.1586 10.9679 0.429126 -0.356392 -0.703032 0.413025 -0.374942 -23.2386 0.516368 -0.210947 -3.22595 0.516391 -0.210944 91.1654 -28.3828 -105.021 48.7352 5.31131 -5.10692 -5.34713 -42.6927 -5.47811 -18.8011 2.65312 -21.7524 -89.1873 -51.0175 80.1464 -20.1534 -7.6248 -11.0563 -11.716 28.9324 0.10189 14.7414 -2.95855 -22.0944 7.54923 1.40003 2.11217 -1.60208 0.953716 1.39167 
-154.7 100.089 -141.331 -99.7895 46.6854 -82.5186 -171.516 -3.46637 93.7027 -15.8848 9.2616 -0.502129 69.5194 7.51336 -0.0335254 26.8127 -1.75664 1.932 171.909 -1.9741 84.548 -17.5394 -18.0126 -2.59596 67.0248 -4.64363 -0.56503 26.5411 -0.722542 6.60047 0.243438 7.9424 -90.19 10.9897 0.396627 -0.41588 -0.681255 0.377927 -0.432926 -23.2166 0.503266 -0.277452 -3.20397 0.503255 -0.277455 91.2767 -27.8371 -104.993 49.3668 4.75987 -6.01351 -5.14923 -39.7283 -5.36345 -19.4983 2.92656 -22.7182 -89.2564 -51.7016 80.179 -19.8216 -8.29098 -9.58823 -12.0337 28.7967 -0.0234708 13.9885 -2.20082 -18.7149 7.5361 1.5909 2.69991 -1.5026 1.01724 1.00766 
